<svg width="742" height="774" viewBox="0 0 742 774" fill="none" xmlns="http://www.w3.org/2000/svg">
<circle cx="266.256" cy="587.484" r="184.73" stroke="#3C4043" stroke-width="2" stroke-miterlimit="14.3356" stroke-dasharray="2 8"/>
<path d="M9.80209 521.584C9.71974 521.583 9.63835 521.566 9.56265 521.533C9.48695 521.501 9.41845 521.454 9.36112 521.395C9.2588 521.291 9.1956 521.155 9.18231 521.01C9.16902 520.865 9.20647 520.72 9.28826 520.6C9.37005 520.479 9.49111 520.391 9.63078 520.35C9.77045 520.309 9.92006 520.317 10.0541 520.374C10.1313 520.403 10.2004 520.451 10.2557 520.512C10.369 520.631 10.4322 520.789 10.4322 520.953C10.4322 521.117 10.369 521.275 10.2557 521.394C10.1977 521.458 10.1238 521.506 10.0415 521.533C9.96704 521.569 9.88486 521.586 9.80209 521.584Z" fill="#3C4043"/>
<path d="M15.3207 531.764C15.2787 531.693 15.2513 531.614 15.2399 531.532C15.2286 531.451 15.2336 531.368 15.2547 531.288C15.2758 531.208 15.3126 531.133 15.3628 531.068C15.4131 531.002 15.4759 530.947 15.5475 530.906C15.6931 530.822 15.8663 530.798 16.0292 530.841C16.1921 530.883 16.3315 530.989 16.4169 531.134C16.4966 531.282 16.5162 531.455 16.4716 531.616C16.427 531.778 16.3216 531.917 16.1775 532.003C16.0807 532.054 15.9723 532.081 15.8625 532.079C15.7525 532.079 15.6444 532.05 15.5493 531.994C15.4541 531.939 15.3753 531.86 15.3207 531.764ZM12.2969 526.523C12.2121 526.377 12.1883 526.204 12.2308 526.041C12.2733 525.878 12.3786 525.739 12.5237 525.653C12.6695 525.573 12.8407 525.554 13.0008 525.598C13.1609 525.643 13.2972 525.749 13.3804 525.893C13.4226 525.964 13.4502 526.042 13.4616 526.124C13.473 526.206 13.468 526.289 13.4468 526.369C13.4257 526.448 13.3889 526.523 13.3386 526.589C13.2882 526.654 13.2254 526.709 13.1537 526.749C13.0588 526.807 12.9498 526.838 12.8387 526.838C12.7286 526.838 12.6205 526.808 12.5253 526.753C12.4302 526.698 12.3514 526.618 12.2969 526.523Z" fill="#3C4043"/>
<path d="M18.899 537.333C18.8163 537.334 18.7343 537.318 18.6583 537.285C18.5823 537.253 18.5141 537.205 18.458 537.144C18.3938 537.091 18.3457 537.021 18.3194 536.942C18.2861 536.867 18.269 536.785 18.269 536.703C18.269 536.62 18.2861 536.539 18.3194 536.464C18.3461 536.385 18.394 536.315 18.458 536.262C18.576 536.147 18.7342 536.083 18.899 536.083C19.0637 536.083 19.2219 536.147 19.3399 536.262C19.4038 536.315 19.4518 536.385 19.4785 536.464C19.5118 536.539 19.529 536.62 19.529 536.703C19.529 536.785 19.5118 536.867 19.4785 536.942C19.4521 537.021 19.4041 537.091 19.3399 537.144C19.2839 537.205 19.2156 537.253 19.1396 537.285C19.0636 537.318 18.9816 537.334 18.899 537.333Z" fill="#3C4043"/>
<path d="M18.899 505.835C18.8163 505.838 18.734 505.82 18.6596 505.784C18.581 505.757 18.5113 505.709 18.458 505.646C18.3984 505.589 18.3509 505.52 18.3184 505.444C18.286 505.369 18.2693 505.287 18.2693 505.205C18.2693 505.122 18.286 505.041 18.3184 504.965C18.3509 504.889 18.3984 504.821 18.458 504.764C18.576 504.649 18.7343 504.584 18.899 504.584C19.0637 504.584 19.2219 504.649 19.34 504.764C19.3998 504.82 19.4474 504.889 19.48 504.965C19.5125 505.04 19.5293 505.122 19.5293 505.205C19.5293 505.287 19.5125 505.369 19.48 505.445C19.4474 505.52 19.3998 505.589 19.34 505.646C19.2868 505.71 19.2171 505.757 19.1384 505.784C19.0639 505.82 18.9817 505.838 18.899 505.835Z" fill="#3C4043"/>
<path d="M24.4175 516.015C24.3754 515.944 24.3479 515.865 24.3365 515.783C24.3251 515.701 24.3302 515.618 24.3513 515.538C24.3724 515.459 24.4092 515.384 24.4595 515.318C24.5098 515.253 24.5726 515.198 24.6443 515.157C24.7152 515.115 24.7939 515.087 24.8757 515.075C24.9576 515.064 25.0409 515.069 25.1207 515.09C25.2006 515.111 25.2754 515.148 25.3407 515.199C25.406 515.25 25.4606 515.313 25.5011 515.385C25.586 515.53 25.6098 515.703 25.5673 515.866C25.5248 516.029 25.4194 516.168 25.2743 516.253C25.1769 516.304 25.0689 516.33 24.9593 516.33C24.8492 516.33 24.7411 516.301 24.6459 516.245C24.5508 516.19 24.472 516.11 24.4175 516.015ZM21.3811 510.773C21.2985 510.626 21.2773 510.452 21.3221 510.29C21.367 510.127 21.4742 509.988 21.6205 509.904C21.7665 509.825 21.9374 509.806 22.0972 509.851C22.2571 509.895 22.3933 510 22.4772 510.143C22.5183 510.215 22.5447 510.295 22.5549 510.377C22.5651 510.459 22.5588 510.542 22.5366 510.622C22.5143 510.702 22.4764 510.776 22.4251 510.841C22.3739 510.906 22.3102 510.96 22.2378 511C22.1482 511.059 22.0428 511.09 21.9355 511.088C21.8237 511.089 21.7138 511.06 21.6166 511.004C21.5194 510.949 21.4382 510.87 21.3811 510.773Z" fill="#3C4043"/>
<path d="M27.9957 521.584C27.913 521.587 27.8309 521.569 27.7564 521.533C27.6755 521.504 27.6023 521.456 27.5422 521.395C27.4288 521.276 27.3656 521.118 27.3656 520.954C27.3656 520.79 27.4288 520.632 27.5422 520.513C27.6313 520.424 27.7446 520.364 27.8679 520.339C27.9911 520.315 28.1189 520.327 28.2351 520.375C28.3123 520.404 28.3814 520.451 28.4367 520.513C28.554 520.63 28.6217 520.788 28.6257 520.954C28.6275 521.036 28.6103 521.118 28.5753 521.193C28.5442 521.27 28.497 521.338 28.4367 521.395C28.3806 521.455 28.3123 521.504 28.2364 521.536C28.1604 521.569 28.0784 521.585 27.9957 521.584Z" fill="#3C4043"/>
<path d="M21.6203 532.003C21.4762 531.917 21.3708 531.779 21.3262 531.617C21.2816 531.455 21.3012 531.282 21.3809 531.135C21.4663 530.989 21.6057 530.884 21.7686 530.841C21.9315 530.799 22.1047 530.822 22.2503 530.907C22.322 530.948 22.3848 531.003 22.4351 531.068C22.4854 531.134 22.5222 531.209 22.5433 531.288C22.5644 531.368 22.5694 531.451 22.558 531.533C22.5467 531.615 22.5192 531.694 22.4771 531.765C22.4226 531.86 22.3438 531.94 22.2486 531.995C22.1535 532.05 22.0454 532.08 21.9353 532.08C21.8255 532.081 21.7171 532.055 21.6203 532.003ZM24.6442 526.749C24.5727 526.708 24.5101 526.653 24.46 526.588C24.4099 526.523 24.3732 526.448 24.3521 526.368C24.331 526.289 24.3259 526.206 24.3371 526.124C24.3483 526.042 24.3756 525.964 24.4174 525.893C24.5007 525.749 24.637 525.643 24.797 525.599C24.9571 525.554 25.1283 525.573 25.2741 525.653C25.4191 525.739 25.5244 525.878 25.5669 526.041C25.6094 526.204 25.5857 526.377 25.5009 526.523C25.4465 526.618 25.3677 526.698 25.2726 526.753C25.1774 526.809 25.0692 526.838 24.9591 526.838C24.8489 526.832 24.7413 526.802 24.6442 526.749Z" fill="#3C4043"/>
<path d="M12.5236 516.254C12.3784 516.169 12.273 516.03 12.2305 515.867C12.1879 515.704 12.2118 515.531 12.2968 515.386C12.3374 515.314 12.3919 515.25 12.4573 515.2C12.5226 515.149 12.5974 515.112 12.6772 515.091C12.7571 515.07 12.8403 515.065 12.9221 515.076C13.0039 515.088 13.0826 515.116 13.1536 515.158C13.2252 515.199 13.288 515.254 13.3383 515.319C13.3886 515.385 13.4254 515.459 13.4465 515.539C13.4676 515.619 13.4726 515.702 13.4612 515.784C13.4499 515.866 13.4224 515.944 13.3804 516.016C13.3259 516.111 13.2471 516.191 13.152 516.246C13.0568 516.301 12.9487 516.331 12.8386 516.331C12.729 516.331 12.6209 516.305 12.5236 516.254ZM15.5474 511C15.4049 510.916 15.3014 510.778 15.2589 510.618C15.2165 510.458 15.2387 510.288 15.3207 510.143C15.404 510 15.5403 509.894 15.7003 509.849C15.8604 509.805 16.0316 509.824 16.1774 509.904C16.3214 509.99 16.4267 510.129 16.4713 510.291C16.5159 510.453 16.4963 510.626 16.4168 510.773C16.359 510.868 16.2774 510.946 16.1801 510.999C16.0828 511.052 15.9732 511.078 15.8624 511.076C15.7531 511.075 15.6454 511.049 15.5474 511Z" fill="#3C4043"/>
<path d="M652.79 455.446C652.726 455.447 652.661 455.435 652.602 455.409C652.543 455.384 652.489 455.346 652.445 455.298C652.397 455.255 652.359 455.202 652.333 455.142C652.308 455.082 652.295 455.018 652.297 454.953C652.296 454.889 652.31 454.825 652.337 454.766C652.358 454.704 652.395 454.65 652.445 454.608C652.513 454.539 652.6 454.492 652.695 454.473C652.79 454.454 652.888 454.463 652.978 454.5C653.039 454.521 653.094 454.558 653.135 454.608C653.185 454.65 653.223 454.704 653.244 454.766C653.271 454.825 653.284 454.889 653.283 454.953C653.285 455.018 653.272 455.082 653.244 455.14C653.223 455.202 653.186 455.256 653.135 455.298C653.094 455.348 653.039 455.385 652.978 455.406C652.919 455.435 652.855 455.448 652.79 455.446Z" fill="#202124"/>
<path d="M649.99 451.088C649.926 450.975 649.909 450.842 649.942 450.716C649.975 450.591 650.056 450.483 650.168 450.417C650.281 450.35 650.417 450.332 650.545 450.365C650.672 450.399 650.781 450.481 650.848 450.595C650.913 450.71 650.929 450.846 650.894 450.973C650.859 451.101 650.775 451.209 650.661 451.275C650.588 451.314 650.507 451.335 650.424 451.334C650.336 451.336 650.25 451.313 650.174 451.27C650.097 451.227 650.034 451.164 649.99 451.088ZM647.624 446.986C647.557 446.872 647.538 446.737 647.572 446.609C647.605 446.482 647.687 446.372 647.801 446.306C647.915 446.243 648.049 446.227 648.175 446.263C648.3 446.298 648.407 446.38 648.472 446.493C648.504 446.549 648.526 446.61 648.534 446.674C648.543 446.738 648.539 446.803 648.523 446.865C648.506 446.928 648.477 446.986 648.438 447.037C648.399 447.088 648.35 447.131 648.294 447.164C648.218 447.205 648.134 447.228 648.048 447.233C647.961 447.232 647.877 447.21 647.802 447.166C647.728 447.123 647.666 447.061 647.624 446.986Z" fill="#202124"/>
<path d="M645.671 443.121C645.607 443.122 645.543 443.108 645.484 443.081C645.424 443.058 645.37 443.021 645.326 442.973C645.234 442.881 645.181 442.758 645.178 442.628C645.181 442.564 645.194 442.5 645.218 442.44C645.242 442.381 645.279 442.327 645.326 442.283C645.369 442.235 645.424 442.197 645.484 442.174C645.575 442.137 645.675 442.127 645.771 442.147C645.868 442.166 645.957 442.213 646.026 442.283C646.07 442.33 646.107 442.383 646.135 442.44C646.155 442.501 646.165 442.564 646.164 442.628C646.165 442.756 646.116 442.88 646.026 442.973C645.98 443.02 645.924 443.057 645.864 443.082C645.803 443.108 645.737 443.121 645.671 443.121Z" fill="#202124"/>
<path d="M654.674 442.628C654.673 442.563 654.685 442.499 654.71 442.438C654.734 442.378 654.771 442.324 654.817 442.278C654.862 442.232 654.917 442.196 654.977 442.171C655.037 442.146 655.102 442.134 655.167 442.135C655.297 442.135 655.422 442.187 655.515 442.28C655.607 442.372 655.659 442.497 655.66 442.628C655.659 442.758 655.607 442.884 655.515 442.976C655.422 443.068 655.297 443.12 655.167 443.121C655.102 443.121 655.037 443.109 654.977 443.085C654.917 443.06 654.863 443.024 654.817 442.978C654.771 442.932 654.734 442.877 654.71 442.817C654.685 442.757 654.673 442.693 654.674 442.628ZM649.931 442.628C649.93 442.564 649.942 442.5 649.966 442.44C649.989 442.381 650.025 442.327 650.07 442.281C650.115 442.235 650.168 442.198 650.227 442.173C650.286 442.148 650.35 442.135 650.414 442.135C650.479 442.134 650.544 442.146 650.605 442.17C650.666 442.195 650.721 442.231 650.768 442.277C650.815 442.323 650.852 442.377 650.877 442.437C650.903 442.498 650.916 442.562 650.917 442.628C650.916 442.693 650.903 442.758 650.877 442.818C650.852 442.878 650.815 442.933 650.768 442.979C650.721 443.025 650.666 443.061 650.605 443.085C650.544 443.11 650.479 443.122 650.414 443.121C650.35 443.12 650.286 443.107 650.227 443.082C650.168 443.057 650.115 443.021 650.07 442.975C650.025 442.929 649.989 442.875 649.966 442.815C649.942 442.756 649.93 442.692 649.931 442.628Z" fill="#202124"/>
<path d="M659.909 443.121C659.845 443.123 659.781 443.109 659.722 443.081C659.659 443.058 659.601 443.021 659.555 442.973C659.465 442.88 659.416 442.756 659.416 442.628C659.414 442.563 659.428 442.499 659.456 442.44C659.477 442.381 659.51 442.327 659.555 442.283C659.624 442.213 659.713 442.166 659.809 442.147C659.906 442.127 660.006 442.137 660.097 442.174C660.157 442.197 660.211 442.235 660.255 442.283C660.302 442.327 660.339 442.381 660.363 442.44C660.387 442.5 660.4 442.564 660.402 442.628C660.4 442.758 660.347 442.881 660.255 442.973C660.211 443.02 660.157 443.058 660.098 443.083C660.038 443.109 659.974 443.122 659.909 443.121Z" fill="#202124"/>
<path d="M654.92 451.275C654.807 451.208 654.725 451.1 654.69 450.973C654.655 450.846 654.67 450.711 654.733 450.596C654.8 450.482 654.909 450.399 655.036 450.366C655.164 450.333 655.299 450.351 655.413 450.417C655.525 450.484 655.606 450.591 655.639 450.717C655.672 450.842 655.655 450.976 655.591 451.089C655.548 451.163 655.486 451.226 655.412 451.269C655.337 451.312 655.253 451.335 655.167 451.335C655.081 451.336 654.996 451.316 654.92 451.275ZM657.287 447.164C657.231 447.131 657.182 447.089 657.142 447.037C657.103 446.986 657.075 446.928 657.058 446.865C657.042 446.803 657.038 446.738 657.046 446.674C657.055 446.61 657.076 446.549 657.109 446.493C657.174 446.38 657.281 446.298 657.406 446.263C657.532 446.228 657.666 446.243 657.78 446.306C657.893 446.373 657.976 446.482 658.009 446.609C658.042 446.737 658.024 446.872 657.957 446.986C657.914 447.061 657.853 447.123 657.778 447.166C657.704 447.21 657.619 447.233 657.533 447.233C657.447 447.228 657.363 447.205 657.287 447.164Z" fill="#202124"/>
<circle cx="541.064" cy="200.877" r="199.877" stroke="#3C4043" stroke-width="2" stroke-miterlimit="14.3356" stroke-dasharray="2 8"/>
<circle cx="487.24" cy="558.633" r="135.24" fill="#4285F4"/>
<circle cx="125.828" cy="432.621" r="76.8284" fill="#FBBC04"/>
<path d="M366.475 157.238C366.475 229.167 308.166 287.477 236.237 287.477C164.308 287.477 105.999 229.167 105.999 157.238C105.999 85.3098 164.308 27 236.237 27C308.166 27 366.475 85.3098 366.475 157.238Z" fill="#EA4335"/>
<circle cx="392.801" cy="328.801" r="45.8014" fill="#34A853"/>
</svg>
